<?xml version="1.0" standalone="no"?>
<!DOCTYPE svg PUBLIC "-//W3C//DTD SVG 20010904//EN"
 "http://www.w3.org/TR/2001/REC-SVG-20010904/DTD/svg10.dtd">
<svg version="1.0" xmlns="http://www.w3.org/2000/svg"
 width="198.000000pt" height="47.000000pt" viewBox="0 0 198.000000 47.000000"
 preserveAspectRatio="xMidYMid meet">

<g transform="translate(0.000000,47.000000) scale(0.100000,-0.100000)"
fill="#000000" stroke="none">
<path d="M1657 372 c-28 -13 -41 -27 -53 -59 -16 -40 -15 -43 6 -72 20 -29 44
-37 88 -32 19 3 16 -88 -3 -95 -27 -11 -16 -19 25 -21 37 -1 55 10 29 19 -6 2
-13 25 -16 51 l-6 47 39 0 c66 0 86 27 71 99 -8 41 -13 49 -40 59 -61 21 -101
22 -140 4z"/>
</g>
</svg>
